<?xml version="1.0" encoding="iso-8859-1"?>
<!-- Generator: Adobe Illustrator 19.1.0, SVG Export Plug-In . SVG Version: 6.00 Build 0)  -->
<svg version="1.1" id="Capa_1" xmlns="http://www.w3.org/2000/svg" xmlns:xlink="http://www.w3.org/1999/xlink" x="0px" y="0px"
	 viewBox="0 0 441.194 441.194" style="enable-background:new 0 0 441.194 441.194;" xml:space="preserve">
<g>
	<g id="Mouse_2_">
		<g>
			<path d="M432.464,140.252c-29.727,12.948-47.436-1.292-73.876-25.6c-19.229-17.664-41.019-37.709-71.585-38.117
				c-24.353-0.34-43.672,6.757-57.391,21.02c-10.045,10.453-15.056,22.902-17.709,33.559c-30.77-20.793-72.697-17.8-99.725,9.206
				L22.86,229.66c-30.679,30.679-30.453,80.656,0.522,111.63s80.95,31.201,111.63,0.522l89.34-89.34
				c27.777-27.777,29.931-71.268,7.143-102.242c0.272-7.097,2.177-24.943,14.263-37.414c9.206-9.524,22.925-14.195,40.725-13.991
				c22.086,0.295,39.001,15.85,56.892,32.312c24.965,22.97,53.264,48.978,97.821,29.568L432.464,140.252z M208.32,236.44
				l-89.317,89.317c-21.882,21.882-57.64,21.7-79.726-0.385c-22.086-22.086-22.267-57.822-0.408-79.703l89.34-89.34
				c21.882-21.859,57.64-21.7,79.726,0.385S230.202,214.581,208.32,236.44z M168.775,179.956l-34.353,34.353
				c-3.764,3.764-3.288,10.476,1.156,14.898c4.422,4.422,11.133,4.898,14.898,1.156l34.33-34.375
				c3.764-3.764,3.288-10.453-1.134-14.898C179.251,176.668,172.539,176.192,168.775,179.956z"/>
		</g>
	</g>
</g>
<g>
</g>
<g>
</g>
<g>
</g>
<g>
</g>
<g>
</g>
<g>
</g>
<g>
</g>
<g>
</g>
<g>
</g>
<g>
</g>
<g>
</g>
<g>
</g>
<g>
</g>
<g>
</g>
<g>
</g>
</svg>
